<?xml version="1.0" encoding="UTF-8" standalone="no"?>
<svg
   viewBox="0 0 134.56 41.79"
   version="1.1"
   id="svg305"
   xmlns="http://www.w3.org/2000/svg"
   xmlns:svg="http://www.w3.org/2000/svg"
   xmlns:rdf="http://www.w3.org/1999/02/22-rdf-syntax-ns#"
   xmlns:cc="http://creativecommons.org/ns#"
   xmlns:dc="http://purl.org/dc/elements/1.1/">
      <path
         class="cls-1"
         d="m 29.65,18.74 a 6.89,6.89 0 0 0 4.5,-4.63 8,8 0 0 0 -4.36,1 7.9,7.9 0 0 0 -2.63,2.35 19,19 0 0 1 -4.83,-1.48 14.54,14.54 0 0 1 0.55,-1.43 16.19,16.19 0 0 1 -3.54,-1.93 6.76,6.76 0 0 1 -2.39,-3.2 12.13,12.13 0 0 0 -4.44,3.19 14.88,14.88 0 0 0 -7.29,1.32 c -0.91,0.42 -1.78,0.93 -2.68,1.38 a 1,1 0 0 0 -0.22,1.61 11.24,11.24 0 0 0 2.9,1.81 26.73,26.73 0 0 0 4.35,1.53 8.07,8.07 0 0 0 0.68,0.75 4.13,4.13 0 0 0 2.3,1.14 0.93,0.93 0 0 0 0.55,-0.09 c 0.31,-0.21 0.27,-0.68 0.18,-1.05 a 0.88,0.88 0 0 1 -0.05,-0.15 c 0.41,0 0.83,0 1.25,0.05 h 0.42 a 10.61,10.61 0 0 0 1.62,1.3 4,4 0 0 0 2.48,0.65 0.82,0.82 0 0 0 0.52,-0.2 c 0.26,-0.26 0.12,-0.71 0,-1.05 -0.12,-0.34 -0.35,-0.69 -0.54,-1 l 2.72,-0.29 a 12.4,12.4 0 0 0 2.93,2.16 1.19,1.19 0 0 0 1.21,0.12 1.21,1.21 0 0 0 0.33,-1.1 12.89,12.89 0 0 0 -0.23,-1.62 c 0.39,0 0.78,-0.05 1.16,-0.05 a 8.43,8.43 0 0 0 1.81,2.57 8,8 0 0 0 4,2 6.91,6.91 0 0 0 -3.26,-5.66 z"
         id="path281" />
      <path
         class="cls-1"
         d="m 59.52,10.32 a 6.89,6.89 0 0 0 4.85,-4.26 8,8 0 0 0 -4.43,0.62 8.12,8.12 0 0 0 -2.8,2.13 18.57,18.57 0 0 1 -4.7,-1.86 C 52.64,6.49 52.86,6.03 53.1,5.58 A 15.68,15.68 0 0 1 49.73,3.37 6.73,6.73 0 0 1 47.6,0 12,12 0 0 0 42.92,2.83 14.9,14.9 0 0 0 35.55,3.57 C 34.61,3.91 33.7,4.36 32.77,4.73 a 1,1 0 0 0 -0.35,1.59 11.36,11.36 0 0 0 2.75,2 26.91,26.91 0 0 0 4.22,1.86 7,7 0 0 0 0.62,0.81 4,4 0 0 0 2.2,1.31 0.85,0.85 0 0 0 0.55,-0.05 c 0.33,-0.19 0.32,-0.65 0.26,-1 v -0.16 c 0.41,0.06 0.82,0.11 1.24,0.14 h 0.42 a 10.13,10.13 0 0 0 1.51,1.42 4.07,4.07 0 0 0 2.42,0.85 0.88,0.88 0 0 0 0.53,-0.16 c 0.29,-0.25 0.19,-0.7 0.05,-1.05 -0.14,-0.35 -0.29,-0.71 -0.46,-1.06 l 2.74,-0.08 a 11.79,11.79 0 0 0 2.75,2.38 c 0.36,0.23 0.83,0.44 1.19,0.22 a 1.2,1.2 0 0 0 0.42,-1.07 14.86,14.86 0 0 0 -0.1,-1.63 c 0.39,0 0.77,0 1.16,0 a 7.93,7.93 0 0 0 5.43,5 6.89,6.89 0 0 0 -2.8,-5.73 z"
         id="path283" />
      <path
         class="cls-1"
         d="m 61.88,35.64 a 5.8,5.8 0 0 0 3.89,-3.78 6.64,6.64 0 0 0 -6,2.62 15.77,15.77 0 0 1 -4,-1.36 c 0.15,-0.4 0.31,-0.79 0.5,-1.18 a 13.58,13.58 0 0 1 -2.93,-1.7 5.71,5.71 0 0 1 -1.93,-2.74 10.11,10.11 0 0 0 -3.8,2.58 12.44,12.44 0 0 0 -6.15,0.93 c -0.78,0.33 -1.52,0.74 -2.28,1.1 a 0.82,0.82 0 0 0 -0.22,1.34 9.06,9.06 0 0 0 2.39,1.59 22.2,22.2 0 0 0 3.61,1.38 5.81,5.81 0 0 0 0.56,0.65 3.41,3.41 0 0 0 1.9,1 0.66,0.66 0 0 0 0.46,-0.07 c 0.27,-0.16 0.24,-0.56 0.18,-0.87 a 0.5,0.5 0 0 1 0,-0.13 c 0.35,0 0.7,0.06 1,0.07 h 0.35 a 8.93,8.93 0 0 0 1.33,1.13 3.43,3.43 0 0 0 2.07,0.6 0.71,0.71 0 0 0 0.44,-0.15 c 0.22,-0.22 0.12,-0.6 0,-0.89 -0.12,-0.29 -0.28,-0.58 -0.43,-0.86 l 2.29,-0.19 a 10.44,10.44 0 0 0 2.41,1.88 0.78,0.78 0 0 0 1.31,-0.79 10.47,10.47 0 0 0 -0.15,-1.36 h 1 a 6.66,6.66 0 0 0 1.46,2.2 6.78,6.78 0 0 0 3.3,1.79 5.81,5.81 0 0 0 -2.56,-4.79 z"
         id="path285" />
      <path
         class="cls-1"
         d="m 91,22.89 a 5.8,5.8 0 0 0 3.37,-4.25 6.63,6.63 0 0 0 -5.57,3.36 15.68,15.68 0 0 1 -4.16,-0.83 10.68,10.68 0 0 1 0.34,-1.23 13.42,13.42 0 0 1 -3.12,-1.32 5.67,5.67 0 0 1 -2.27,-2.46 10,10 0 0 0 -3.44,3 12.61,12.61 0 0 0 -6,1.71 c -0.72,0.43 -1.41,0.94 -2.12,1.39 a 0.83,0.83 0 0 0 0,1.36 9.54,9.54 0 0 0 2.58,1.27 22.36,22.36 0 0 0 3.76,0.9 c 0.21,0.2 0.41,0.4 0.64,0.58 a 3.42,3.42 0 0 0 2,0.75 0.68,0.68 0 0 0 0.44,-0.12 c 0.25,-0.21 0.17,-0.59 0.06,-0.89 a 1.12,1.12 0 0 0 -0.05,-0.13 l 1.05,-0.06 0.35,-0.05 a 8.7,8.7 0 0 0 1.46,0.95 3.43,3.43 0 0 0 2.13,0.33 0.63,0.63 0 0 0 0.41,-0.21 c 0.2,-0.24 0.05,-0.61 -0.11,-0.88 -0.16,-0.27 -0.35,-0.54 -0.54,-0.8 l 2.25,-0.47 a 10.35,10.35 0 0 0 2.62,1.55 1,1 0 0 0 1,0 1,1 0 0 0 0.18,-0.95 12.3,12.3 0 0 0 -0.33,-1.33 c 0.32,-0.06 0.64,-0.11 1,-0.14 A 6.63,6.63 0 0 0 94.16,27.26 5.79,5.79 0 0 0 91,22.89 Z"
         id="path287" />
      <path
         class="cls-1"
         d="m 117.18,10.35 a 4.37,4.37 0 0 0 1.92,-3.6 5.17,5.17 0 0 0 -2.48,1.35 5.08,5.08 0 0 0 -1.18,1.88 11.69,11.69 0 0 1 -3.18,-0.05 c 0,-0.32 0,-0.64 0.08,-1 a 10,10 0 0 1 -2.48,-0.55 4.34,4.34 0 0 1 -2,-1.52 7.62,7.62 0 0 0 -2.13,2.71 9.45,9.45 0 0 0 -4.19,2.07 c -0.48,0.41 -0.91,0.88 -1.38,1.3 a 0.62,0.62 0 0 0 0.15,1 6.67,6.67 0 0 0 2.07,0.6 16.66,16.66 0 0 0 2.91,0.16 3.77,3.77 0 0 0 0.54,0.34 2.53,2.53 0 0 0 1.59,0.29 0.6,0.6 0 0 0 0.32,-0.15 c 0.15,-0.19 0,-0.46 -0.08,-0.67 a 0.35,0.35 0 0 1 -0.05,-0.08 l 0.76,-0.19 0.25,-0.09 a 6.09,6.09 0 0 0 1.21,0.51 2.56,2.56 0 0 0 1.62,0 0.49,0.49 0 0 0 0.28,-0.21 c 0.11,-0.21 0,-0.46 -0.21,-0.63 a 6.26,6.26 0 0 0 -0.51,-0.52 l 1.6,-0.65 a 8,8 0 0 0 2.15,0.79 0.78,0.78 0 0 0 0.76,-0.14 0.74,0.74 0 0 0 0,-0.72 6.58,6.58 0 0 0 -0.42,-0.94 c 0.23,-0.09 0.46,-0.17 0.7,-0.24 a 4.91,4.91 0 0 0 1.55,1.24 5,5 0 0 0 2.77,0.53 4.37,4.37 0 0 0 -2.94,-2.82 z"
         id="path289" />
      <path
         class="cls-1"
         d="M 86.23,8.7 A 3.12,3.12 0 0 0 88.05,6.4 3.62,3.62 0 0 0 86.12,7.04 3.56,3.56 0 0 0 85.05,8.22 8.78,8.78 0 0 1 82.8,7.8 C 82.86,7.57 82.91,7.35 82.99,7.13 A 7.2,7.2 0 0 1 81.3,6.42 3,3 0 0 1 80.07,5.09 5.45,5.45 0 0 0 78.21,6.74 6.68,6.68 0 0 0 74.98,7.67 C 74.59,7.9 74.22,8.18 73.83,8.42 a 0.45,0.45 0 0 0 0,0.74 5,5 0 0 0 1.39,0.68 12.11,12.11 0 0 0 2,0.49 l 0.34,0.31 a 1.92,1.92 0 0 0 1.09,0.4 0.42,0.42 0 0 0 0.25,-0.06 c 0.13,-0.11 0.09,-0.32 0,-0.48 v -0.07 h 0.57 0.18 a 4.57,4.57 0 0 0 0.8,0.52 1.84,1.84 0 0 0 1.15,0.18 0.37,0.37 0 0 0 0.22,-0.12 c 0.11,-0.13 0,-0.33 -0.06,-0.47 -0.06,-0.14 -0.19,-0.3 -0.29,-0.44 l 1.21,-0.26 a 5.27,5.27 0 0 0 1.43,0.84 0.42,0.42 0 0 0 0.65,-0.51 C 84.71,9.92 84.65,9.69 84.58,9.45 L 85.1,9.37 a 3.88,3.88 0 0 0 0.94,1.08 3.64,3.64 0 0 0 1.9,0.72 3.13,3.13 0 0 0 -1.71,-2.47 z"
         id="path291" />
      <path
         class="cls-1"
         d="m 119.8,27.29 a 3.12,3.12 0 0 0 1.54,-2.49 3.56,3.56 0 0 0 -1.84,0.86 3.62,3.62 0 0 0 -0.93,1.29 8.41,8.41 0 0 1 -2.29,-0.18 c 0,-0.23 0.06,-0.45 0.1,-0.68 a 7.24,7.24 0 0 1 -1.76,-0.51 3.08,3.08 0 0 1 -1.37,-1.18 5.56,5.56 0 0 0 -1.66,1.85 6.89,6.89 0 0 0 -3.1,1.3 c -0.36,0.28 -0.7,0.59 -1,0.88 a 0.45,0.45 0 0 0 0.06,0.73 4.69,4.69 0 0 0 1.47,0.52 12.07,12.07 0 0 0 2.07,0.25 4.44,4.44 0 0 0 0.38,0.27 1.81,1.81 0 0 0 1.13,0.27 0.39,0.39 0 0 0 0.24,-0.09 c 0.11,-0.12 0,-0.33 0,-0.48 v -0.06 l 0.56,-0.11 0.18,-0.05 a 4,4 0 0 0 0.85,0.42 1.85,1.85 0 0 0 1.16,0.05 0.43,0.43 0 0 0 0.21,-0.14 c 0.09,-0.15 0,-0.33 -0.12,-0.47 l -0.34,-0.39 1.18,-0.4 a 6,6 0 0 0 1.51,0.67 c 0.19,0.05 0.42,0.08 0.55,-0.07 a 0.53,0.53 0 0 0 0,-0.52 5.17,5.17 0 0 0 -0.26,-0.69 L 118.84,28 a 3.71,3.71 0 0 0 1.05,1 3.66,3.66 0 0 0 2,0.5 3.13,3.13 0 0 0 -2.09,-2.21 z"
         id="path293" />
      <path
         class="cls-1"
         d="m 30.09,34.61 a 1.91,1.91 0 0 0 1.38,-1.16 2.21,2.21 0 0 0 -1.24,0.15 2.16,2.16 0 0 0 -0.79,0.58 5.78,5.78 0 0 1 -1.31,-0.55 c 0.06,-0.13 0.13,-0.26 0.2,-0.38 a 4.27,4.27 0 0 1 -0.93,-0.64 1.85,1.85 0 0 1 -0.58,-0.95 3.36,3.36 0 0 0 -1.32,0.76 4.27,4.27 0 0 0 -2.07,0.16 c -0.26,0.09 -0.52,0.21 -0.78,0.31 a 0.28,0.28 0 0 0 -0.11,0.44 3.1,3.1 0 0 0 0.76,0.59 6.91,6.91 0 0 0 1.17,0.54 1.24,1.24 0 0 0 0.17,0.23 1,1 0 0 0 0.6,0.38 0.22,0.22 0 0 0 0.16,0 c 0.09,-0.05 0.09,-0.18 0.08,-0.28 a 0.09,0.09 0 0 1 0,-0.05 l 0.34,0.05 h 0.12 a 3.18,3.18 0 0 0 0.41,0.41 1.2,1.2 0 0 0 0.68,0.25 0.28,0.28 0 0 0 0.15,0 c 0.08,-0.07 0,-0.2 0,-0.3 a 1.88,1.88 0 0 0 -0.12,-0.3 h 0.74 a 3.47,3.47 0 0 0 0.75,0.68 c 0.1,0.07 0.23,0.13 0.33,0.07 a 0.37,0.37 0 0 0 0.13,-0.3 c 0,-0.15 0,-0.3 0,-0.45 h 0.32 a 2.37,2.37 0 0 0 0.44,0.77 2.17,2.17 0 0 0 1,0.67 1.93,1.93 0 0 0 -0.68,-1.68 z"
         id="path295" />
      <path
         class="cls-1"
         d="m 51.01,20.53 a 1.94,1.94 0 0 0 1.24,-1.31 2.36,2.36 0 0 0 -1.22,0.28 2.31,2.31 0 0 0 -0.72,0.67 5.05,5.05 0 0 1 -1.36,-0.4 C 49,19.64 49.04,19.5 49.1,19.37 a 4.75,4.75 0 0 1 -1,-0.52 1.91,1.91 0 0 1 -0.67,-0.89 3.27,3.27 0 0 0 -1.23,0.91 4.15,4.15 0 0 0 -2,0.39 l -0.75,0.4 a 0.27,0.27 0 0 0 0,0.45 3.05,3.05 0 0 0 0.81,0.5 8,8 0 0 0 1.22,0.41 l 0.2,0.21 a 1.12,1.12 0 0 0 0.64,0.3 0.22,0.22 0 0 0 0.16,0 c 0.08,-0.06 0.07,-0.19 0,-0.3 -0.07,-0.11 0,0 0,0 h 0.46 a 3.17,3.17 0 0 0 0.46,0.36 1.09,1.09 0 0 0 0.7,0.17 0.19,0.19 0 0 0 0.14,0 c 0.07,-0.08 0,-0.2 0,-0.3 0,-0.1 -0.1,-0.19 -0.16,-0.28 l 0.76,-0.09 a 3.22,3.22 0 0 0 0.83,0.59 0.32,0.32 0 0 0 0.34,0 c 0.09,-0.06 0.09,-0.2 0.08,-0.31 a 2.34,2.34 0 0 0 -0.07,-0.45 h 0.33 a 2.26,2.26 0 0 0 0.51,0.71 2.22,2.22 0 0 0 1.13,0.55 1.92,1.92 0 0 0 -0.98,-1.65 z"
         id="path297" />
      <path
         class="cls-1"
         d="m 131.24,16.42 a 1.94,1.94 0 0 0 0.82,-1.61 2.34,2.34 0 0 0 -1.09,0.62 2.3,2.3 0 0 0 -0.51,0.85 5.54,5.54 0 0 1 -1.41,0 v -0.43 a 4.57,4.57 0 0 1 -1.1,-0.22 1.88,1.88 0 0 1 -0.9,-0.66 3.48,3.48 0 0 0 -0.93,1.22 4.13,4.13 0 0 0 -1.83,0.95 c -0.21,0.19 -0.4,0.4 -0.61,0.59 a 0.28,0.28 0 0 0 0.08,0.45 3.2,3.2 0 0 0 0.92,0.24 8,8 0 0 0 1.29,0.05 l 0.24,0.15 a 1.17,1.17 0 0 0 0.71,0.11 0.23,0.23 0 0 0 0.14,-0.07 c 0.07,-0.08 0,-0.2 0,-0.29 l 0.33,-0.09 h 0.11 a 3.07,3.07 0 0 0 0.54,0.22 1.26,1.26 0 0 0 0.72,0 c 0.05,0 0.1,0 0.12,-0.1 0.02,-0.1 0,-0.2 -0.1,-0.28 l -0.22,-0.23 0.7,-0.3 a 3.23,3.23 0 0 0 1,0.34 c 0.12,0 0.26,0 0.33,-0.07 a 0.33,0.33 0 0 0 0,-0.32 3.11,3.11 0 0 0 -0.2,-0.41 l 0.31,-0.11 a 2.28,2.28 0 0 0 0.7,0.53 2.18,2.18 0 0 0 1.23,0.21 1.92,1.92 0 0 0 -1.39,-1.34 z"
         id="path299" />
      <path
         class="cls-1"
         d="m 92.16,37.21 a 3.13,3.13 0 0 0 1.74,-2.36 3.6,3.6 0 0 0 -2.94,1.92 8.4,8.4 0 0 1 -2.27,-0.36 c 0,-0.23 0.1,-0.46 0.16,-0.68 a 7.36,7.36 0 0 1 -1.71,-0.65 3.06,3.06 0 0 1 -1.28,-1.29 5.65,5.65 0 0 0 -1.8,1.71 6.81,6.81 0 0 0 -3.19,1 c -0.39,0.25 -0.75,0.54 -1.13,0.79 a 0.46,0.46 0 0 0 0,0.74 5.2,5.2 0 0 0 1.42,0.64 12,12 0 0 0 2,0.41 3.37,3.37 0 0 0 0.36,0.3 1.78,1.78 0 0 0 1.1,0.37 0.38,0.38 0 0 0 0.24,-0.07 c 0.13,-0.12 0.08,-0.33 0,-0.48 v -0.07 a 5,5 0 0 0 0.56,-0.06 h 0.19 a 4.43,4.43 0 0 0 0.81,0.48 1.79,1.79 0 0 0 1.16,0.14 0.37,0.37 0 0 0 0.22,-0.12 c 0.1,-0.13 0,-0.33 -0.08,-0.47 a 4.56,4.56 0 0 0 -0.31,-0.42 l 1.21,-0.3 a 5.67,5.67 0 0 0 1.45,0.79 c 0.18,0.06 0.41,0.11 0.55,0 a 0.56,0.56 0 0 0 0.08,-0.52 5.75,5.75 0 0 0 -0.2,-0.71 4.35,4.35 0 0 1 0.52,-0.1 3.44,3.44 0 0 0 1,1 3.61,3.61 0 0 0 1.92,0.66 3.13,3.13 0 0 0 -1.78,-2.29 z"
         id="path301" />
</svg>
