<?xml version="1.0" encoding="UTF-8" standalone="no"?>
<svg
   viewBox="0 0 33.31 26.35"
   version="1.1"
   id="svg42"
   xmlns="http://www.w3.org/2000/svg"
   xmlns:svg="http://www.w3.org/2000/svg"
   xmlns:rdf="http://www.w3.org/1999/02/22-rdf-syntax-ns#"
   xmlns:cc="http://creativecommons.org/ns#"
   xmlns:dc="http://purl.org/dc/elements/1.1/">
  <defs
     id="defs34">
    <style
       id="style32">.cls-1{fill:#005085;}</style>
  </defs>
  <title
     id="title36">Fish 6</title>
  <g
     id="Calque_2"
     data-name="Calque 2">
    <g
       id="OBJECTS">
      <path
         class="cls-1"
         d="m 0.16,0 a 40.51,40.51 0 0 1 15.44,3.12 35.07,35.07 0 0 1 13.77,10.4 4.16,4.16 0 0 0 1.65,1.5 c 0.45,0.17 1,0.17 1.4,0.32 a 1.13,1.13 0 0 1 0.89,1 2.76,2.76 0 0 1 -1.87,1.07 8.18,8.18 0 0 0 -2.1,0.44 7,7 0 0 0 -2,1.9 11.54,11.54 0 0 1 -6.33,3.6 27.65,27.65 0 0 0 -4.57,0.81 c -0.83,0.31 -1.59,0.79 -2.39,1.16 a 9.4,9.4 0 0 1 -4.81,0.95 10.82,10.82 0 0 0 2.1,-2.67 5,5 0 0 0 0.54,-3.3 10.83,10.83 0 0 0 -1,-2.36 A 14.93,14.93 0 0 0 8.06,18.39 6,6 0 0 0 7.22,18.68 9.27,9.27 0 0 0 5.9,19.4 0.41,0.41 0 0 1 5.28,18.92 7.64,7.64 0 0 0 5.76,16.43 7,7 0 0 0 5.57,14.92 10.26,10.26 0 0 0 3.39,10.64 0.42,0.42 0 0 1 3.77,9.95 a 12.17,12.17 0 0 1 4,1.67 32.29,32.29 0 0 0 3.4,1.89 c 0.13,-0.2 0.26,-0.4 0.38,-0.61 A 5.74,5.74 0 0 0 12.29,9.17 7.22,7.22 0 0 0 11.47,6.94 8.3,8.3 0 0 0 9.37,4.37 12,12 0 0 0 7.05,3.12 40.83,40.83 0 0 0 0.11,0.31 0.16,0.16 0 0 1 0.16,0 Z"
         id="path38" />
    </g>
  </g>
  <metadata
     id="metadata251">
    <rdf:RDF>
      <cc:Work
         rdf:about="">
        <dc:title>Fish 6</dc:title>
      </cc:Work>
    </rdf:RDF>
  </metadata>
  <circle
     style="fill:#000000"
     id="path172"
     cx="26.29044"
     cy="13.79656"
     r="0.41448891" />
</svg>
