<svg xmlns="http://www.w3.org/2000/svg" viewBox="0 0 196.09 142.56"><defs><style>.cls-1{fill:#005f60;}.cls-2{fill:#024947;}.cls-3{fill:#005757;}</style></defs><title>Fish 7</title><g id="Calque_2" data-name="Calque 2"><g id="BACKGROUND_2" data-name="BACKGROUND 2"><path class="cls-1" d="M174.84,34c-.12-.53-.23-1.06-.34-1.59l-.21-1.15c0-.18-.07-.37-.11-.55q-.13-.75-.24-1.5l0-.18a60.8,60.8,0,0,1-.71-8.31h0a47.38,47.38,0,0,1,1.66-13.41,33.48,33.48,0,0,0-8.65,11.24A17.35,17.35,0,0,1,160.62,0C151.24,2.39,140,10.28,134.35,20.76c.68,1.09,1.4,2.13,2.16,3.13.38.5.76,1,1.16,1.46l.42.47-.29,5.05a3.82,3.82,0,0,0,1.29,3.1l.62.56h0l2.16,1.91-1.39-8.07c.61.59,1.24,1.16,1.88,1.71a6,6,0,0,0,3,4.82A21.09,21.09,0,0,0,153,37.67a1.83,1.83,0,0,0,1.33-.36c1,.43,2.06.83,3.13,1.2h0c.06-.39.13-.78.2-1.16l.09-.4c.06-.25.11-.5.17-.74s.09-.32.13-.47.12-.44.19-.65.11-.33.16-.5.13-.39.2-.59l.2-.51.22-.55c.08-.18.15-.35.23-.52l.24-.52.27-.52.25-.49.3-.52.27-.46c.11-.18.22-.36.34-.53l.28-.42.38-.54.28-.39.42-.55c.09-.11.19-.22.28-.34l.48-.57.25-.27c.18-.21.36-.41.56-.61l.1-.11a32.8,32.8,0,0,1,2.5-2.32h0a39.52,39.52,0,0,0,5.29,7.56l.08.1.49.55.17.18.43.48.25.27.38.4.36.39.29.3.66.67v0h0C174.85,34.12,174.85,34.08,174.84,34Z"/><path class="cls-2" d="M140.65,17.6a1,1,0,1,1-1-1A1,1,0,0,1,140.65,17.6Z"/><path class="cls-3" d="M144,12.74s3.45,8.26-.36,14.63c0,0,2.77-3.15,2.56-6.79A25.43,25.43,0,0,0,144,12.74Z"/><path class="cls-1" d="M113.61,73.57c-.21-.31-.42-.61-.62-.92s-.43-.66-.64-1l-.43-.66c-.24-.39-.46-.77-.69-1.16-.1-.16-.2-.32-.29-.49-.24-.42-.47-.84-.7-1.26l-.21-.38c-.24-.46-.47-.92-.69-1.37l-.14-.27c-.23-.48-.46-1-.67-1.46l-.08-.17c-.22-.51-.43-1-.64-1.53l0-.09c-.21-.53-.41-1.06-.59-1.59v0a35.81,35.81,0,0,1-2-11.26h0c-.1-8.71,3.28-17.22,10.2-25.47C109.1,30,98.93,36.07,93.4,43.09c-2.56-6.27-8.41-11.4-16-14.15h0a26.18,26.18,0,0,1,7.34-10.52C64.24,19.11,53,26,47.41,31c-6.5,3.59-15.72,17.06-15.72,18.9v.58c0,1.61,5.89,10.4,8.54,13.3l.93,8a9.2,9.2,0,0,0,4,6.55l1.22.83h0l4.23,2.88L45.45,68.23l-.05,0c.54.36,1.1.7,1.68,1,4.64,7.87,16,19.06,42.52,16.08a36.28,36.28,0,0,1-11-14.23l.36-.15.49-.21.66-.3.52-.25.61-.3.52-.27.6-.33.48-.27,1-.59.51-.34.48-.32.52-.38.43-.32.52-.4.38-.31.52-.44.27-.24c.36-.33.72-.66,1-1l.24-.24c.17-.17.33-.34.49-.52l.27-.3c.16-.17.31-.35.46-.53l.25-.3.45-.57.17-.24a19,19,0,0,0,1.38-2.1l.15-.25c.12-.21.23-.43.34-.64l.15-.3c.11-.22.21-.43.31-.65l.12-.29c.11-.23.2-.46.3-.7h0c.31.38.65.75,1,1.12l.2.21c.34.36.69.72,1,1.07l.19.19,1.06,1,.13.12,1.19,1.07.25.22,1.24,1.06.14.12,1.21,1,.21.18,1.3,1,.27.21,2.85,2.26,1.34,1,.26.2,1.18.94.2.15,1.24,1,.27.22,1.23,1,.15.13,1.08.93.21.19c.38.33.74.67,1.1,1l.22.2,1.06,1c-.42-.55-.83-1.11-1.22-1.66ZM66.82,26.81Z"/><path class="cls-2" d="M44.09,44.47a1.69,1.69,0,1,1-1.69-1.69A1.69,1.69,0,0,1,44.09,44.47Z"/><path class="cls-3" d="M49.78,36.27s5.83,13.94-.6,24.69c0,0,4.67-5.32,4.31-11.46S49.78,36.27,49.78,36.27Z"/><path class="cls-1" d="M194.7,132.72c-.17-.24-.35-.49-.51-.73l-.51-.8-.34-.53c-.19-.31-.38-.62-.56-.93l-.23-.4c-.2-.34-.38-.67-.56-1l-.17-.31c-.2-.37-.38-.73-.56-1.1l-.11-.21c-.19-.4-.37-.79-.54-1.18l-.06-.13-.52-1.24a.19.19,0,0,0,0-.07c-.17-.43-.33-.86-.48-1.28v0a28.62,28.62,0,0,1-1.64-9h0q-.12-10.51,8.2-20.48c-5,4.41-13.19,9.33-17.64,15-2.06-5-6.76-9.17-12.84-11.38h0a21.06,21.06,0,0,1,5.9-8.45c-16.5.55-25.57,6.11-30,10.14-5.23,2.89-12.64,13.72-12.64,15.2v.46c0,1.29,4.74,8.36,6.87,10.7l.74,6.41a7.43,7.43,0,0,0,3.2,5.27l1,.66h0l3.4,2.31-4.12-11.11,0,0q.66.43,1.35.84c3.73,6.32,12.85,15.31,34.18,12.92a29.21,29.21,0,0,1-8.86-11.44l.29-.12.4-.17.53-.24.42-.2.49-.24.41-.22.49-.27.38-.21c.26-.16.52-.31.77-.48s.27-.18.41-.27l.38-.26.42-.3.35-.26.42-.32.3-.25.42-.35a2.09,2.09,0,0,1,.22-.2c.29-.26.57-.53.84-.8l.19-.19.4-.42.21-.24.38-.43.19-.24a5.19,5.19,0,0,0,.36-.46l.15-.19a16.85,16.85,0,0,0,1.1-1.69l.12-.2c.1-.17.19-.34.28-.52l.12-.24c.08-.17.17-.34.25-.52a2.29,2.29,0,0,1,.1-.23c.08-.18.16-.37.23-.56h0c.25.3.52.6.8.89l.16.18.84.86.16.15.85.81.1.09,1,.87.2.17,1,.86.11.09,1,.81.18.14,1,.84.21.17c.76.61,1.53,1.21,2.3,1.81l1.07.84.21.17.95.75.16.13,1,.81.22.18c.33.27.66.54,1,.82l.12.09.87.76.17.15c.3.27.6.53.88.8l.18.17.85.82c-.34-.45-.66-.89-1-1.34ZM157.08,95.13Z"/><circle class="cls-2" cx="137.23" cy="108.83" r="1.69"/><path class="cls-3" d="M144.61,100.64s5.83,13.93-.6,24.68c0,0,4.67-5.32,4.31-11.46S144.61,100.64,144.61,100.64Z"/><path class="cls-1" d="M28.75,107.89l-.24-1.13-.15-.81c0-.14-.05-.27-.08-.4-.06-.35-.12-.71-.17-1.06a.69.69,0,0,1,0-.13,42.71,42.71,0,0,1-.5-5.9h0a33,33,0,0,1,1.18-9.52,23.51,23.51,0,0,0-6.14,8,12.31,12.31,0,0,1-4-13.2A31.62,31.62,0,0,0,0,98.46q.72,1.16,1.53,2.22c.27.35.55.7.83,1l.29.33-.2,3.59a2.75,2.75,0,0,0,.91,2.2l.44.39h0l1.54,1.36-1-5.73c.44.42.88.83,1.34,1.22A4.29,4.29,0,0,0,7.8,108.5a14.91,14.91,0,0,0,5.44,2,1.26,1.26,0,0,0,.94-.25c.72.31,1.46.59,2.22.85h0c0-.27.09-.55.15-.82l.06-.28.12-.53.09-.33c.05-.16.09-.31.13-.46l.12-.36c.05-.14.09-.28.15-.42l.13-.36c.06-.13.11-.26.16-.39s.11-.25.17-.37.11-.24.17-.37L18,106c.06-.11.12-.23.19-.34a3.59,3.59,0,0,1,.21-.38l.19-.32.24-.38.2-.3.26-.38.21-.27a4,4,0,0,1,.3-.39A2.43,2.43,0,0,1,20,103l.33-.4.18-.19c.13-.15.26-.3.4-.44a.46.46,0,0,1,.07-.07,21.71,21.71,0,0,1,1.78-1.65h0a28.62,28.62,0,0,0,3.76,5.38l.06.06.34.39.12.14c.1.11.21.22.31.34l.18.19.26.28a3.45,3.45,0,0,1,.26.28l.21.21.46.47,0,0h0S28.76,107.92,28.75,107.89Z"/><circle class="cls-2" cx="3.3" cy="96.53" r="0.71"/><path class="cls-3" d="M6.42,93.07S8.89,99,6.17,103.5A7.69,7.69,0,0,0,8,98.66,18.08,18.08,0,0,0,6.42,93.07Z"/></g></g></svg>